<svg width="238" height="50" viewBox="0 0 238 50" fill="none" xmlns="http://www.w3.org/2000/svg">
<path d="M5.18402 1.59994H12.096C13.696 1.59994 15.168 1.75994 16.512 2.07994C17.856 2.39994 18.9334 2.96528 19.744 3.77594C20.576 4.56528 20.992 5.69594 20.992 7.16794C20.992 8.19194 20.7894 9.04528 20.384 9.72794C19.9787 10.4106 19.456 10.9226 18.816 11.2639C18.1974 11.6053 17.5254 11.7866 16.8 11.8079C17.8454 11.8506 18.8054 12.1066 19.68 12.5759C20.576 13.0453 21.2907 13.7066 21.824 14.5599C22.3574 15.3919 22.624 16.4053 22.624 17.5999C22.624 19.0719 22.1867 20.2879 21.312 21.2479C20.4587 22.1866 19.2747 22.8799 17.76 23.3279C16.2667 23.7759 14.5494 23.9999 12.608 23.9999H9.69602C9.69602 23.9999 9.69602 23.8613 9.69602 23.5839C9.71736 23.3066 9.72802 23.0399 9.72802 22.7839C9.72802 22.5066 9.72802 22.3679 9.72802 22.3679H10.4C11.2534 22.3679 12.032 22.1973 12.736 21.8559C13.4614 21.5146 14.0374 20.9599 14.464 20.1919C14.8907 19.4239 15.104 18.3999 15.104 17.1199C15.104 16.3519 15.0187 15.6693 14.848 15.0719C14.6774 14.4533 14.4214 13.9306 14.08 13.5039C13.76 13.0559 13.344 12.7253 12.832 12.5119C12.3414 12.2773 11.7547 12.1599 11.072 12.1599V11.8719C11.584 11.8719 12.032 11.7759 12.416 11.5839C12.8 11.3919 13.1094 11.1253 13.344 10.7839C13.6 10.4213 13.792 9.98394 13.92 9.47194C14.048 8.93861 14.112 8.34128 14.112 7.67994C14.112 6.52794 13.9414 5.63194 13.6 4.99194C13.28 4.33061 12.8427 3.87194 12.288 3.61594C11.7334 3.33861 11.104 3.19994 10.4 3.19994H5.50402C5.50402 3.17861 5.47202 3.03994 5.40802 2.78394C5.36536 2.52794 5.31202 2.27194 5.24802 2.01594C5.20536 1.73861 5.18402 1.59994 5.18402 1.59994ZM9.98402 1.59994V23.9999H3.42402V1.59994H9.98402ZM3.52002 21.6639V23.9999H0.960022V23.6799C1.00269 23.6799 1.07736 23.6799 1.18402 23.6799C1.29069 23.6799 1.35469 23.6799 1.37602 23.6799C1.93069 23.6799 2.40002 23.4879 2.78402 23.1039C3.18936 22.6986 3.40269 22.2186 3.42402 21.6639H3.52002ZM3.52002 3.93594H3.42402C3.40269 3.38128 3.18936 2.91194 2.78402 2.52794C2.40002 2.12261 1.93069 1.91994 1.37602 1.91994C1.35469 1.91994 1.29069 1.91994 1.18402 1.91994C1.07736 1.91994 1.00269 1.91994 0.960022 1.91994V1.59994H3.52002V3.93594Z" fill="#D1A054"/>
<path d="M33.3903 1.59994V23.9999H26.8303V1.59994H33.3903ZM26.9263 21.6639V23.9999H24.3663V23.6799C24.3663 23.6799 24.4303 23.6799 24.5583 23.6799C24.7076 23.6799 24.7823 23.6799 24.7823 23.6799C25.3369 23.6799 25.8063 23.4879 26.1903 23.1039C26.5956 22.6986 26.8089 22.2186 26.8303 21.6639H26.9263ZM26.9263 3.93594H26.8303C26.8089 3.38128 26.5956 2.91194 26.1903 2.52794C25.8063 2.12261 25.3369 1.91994 24.7823 1.91994C24.7823 1.91994 24.7076 1.91994 24.5583 1.91994C24.4303 1.91994 24.3663 1.91994 24.3663 1.91994V1.59994H26.9263V3.93594ZM33.2943 21.6639H33.3903C33.4116 22.2186 33.6143 22.6986 33.9983 23.1039C34.4036 23.4879 34.8836 23.6799 35.4383 23.6799C35.4383 23.6799 35.5023 23.6799 35.6303 23.6799C35.7583 23.6799 35.8329 23.6799 35.8543 23.6799V23.9999H33.2943V21.6639ZM33.2943 3.93594V1.59994H35.8543V1.91994C35.8329 1.91994 35.7583 1.91994 35.6303 1.91994C35.5023 1.91994 35.4383 1.91994 35.4383 1.91994C34.8836 1.91994 34.4036 2.12261 33.9983 2.52794C33.6143 2.91194 33.4116 3.38128 33.3903 3.93594H33.2943Z" fill="#D1A054"/>
<path d="M46.1893 1.15194C46.6586 1.15194 47.2879 1.17328 48.0773 1.21594C48.8666 1.25861 49.6879 1.32261 50.5413 1.40794C51.3946 1.47194 52.1413 1.54661 52.7813 1.63194C53.4213 1.69594 53.8373 1.77061 54.0293 1.85594L53.3893 6.68794H53.0693C53.0693 5.51461 52.6106 4.56528 51.6933 3.83994C50.7973 3.11461 49.5599 2.75194 47.9813 2.75194C46.6799 2.75194 45.6453 3.00794 44.8773 3.51994C44.1093 4.01061 43.6933 4.65061 43.6293 5.43994C43.5653 6.20794 43.8213 6.80528 44.3973 7.23194C44.9946 7.65861 45.6879 8.05328 46.4773 8.41594L52.4613 11.1999C53.6559 11.7333 54.5946 12.5119 55.2773 13.5359C55.9599 14.5599 56.2479 15.8506 56.1413 17.4079C55.9919 19.6906 55.0319 21.4399 53.2613 22.6559C51.5119 23.8506 49.1226 24.4479 46.0933 24.4479C44.8559 24.4479 43.7359 24.3519 42.7333 24.1599C41.7306 23.9679 40.8666 23.7226 40.1413 23.4239C39.4373 23.1039 38.8933 22.7519 38.5093 22.3679C38.2746 21.8346 38.1786 21.1839 38.2213 20.4159C38.2639 19.6479 38.4026 18.8906 38.6373 18.1439C38.8933 17.3759 39.1919 16.7679 39.5333 16.3199H39.8213C39.7573 17.4293 39.9919 18.4853 40.5253 19.4879C41.0586 20.4906 41.8586 21.3013 42.9253 21.9199C43.9919 22.5386 45.2719 22.8479 46.7653 22.8479C48.3013 22.8479 49.4319 22.5279 50.1573 21.8879C50.9039 21.2479 51.2773 20.5226 51.2773 19.7119C51.2773 19.0293 51.0106 18.4106 50.4773 17.8559C49.9653 17.3013 49.1013 16.7466 47.8853 16.1919L42.6693 13.7599C41.1973 13.0773 40.1199 12.1386 39.4373 10.9439C38.7759 9.74928 38.5413 8.39461 38.7333 6.87994C38.8826 5.64261 39.2773 4.59728 39.9173 3.74394C40.5573 2.89061 41.3999 2.25061 42.4453 1.82394C43.5119 1.37594 44.7599 1.15194 46.1893 1.15194ZM54.0933 1.47194L53.9973 2.14394H49.3573V1.47194H54.0933Z" fill="#D1A054"/>
<path d="M71.8703 1.69594V23.9999H65.3103V1.69594H71.8703ZM79.4543 1.56794V3.16794H57.7263V1.56794H79.4543ZM79.4543 3.07194V7.58394L79.1343 7.55194V7.32794C79.1343 6.04794 78.7716 5.04528 78.0463 4.31994C77.3209 3.57328 76.3076 3.18928 75.0063 3.16794V3.07194H79.4543ZM79.4543 0.991943V1.91994L75.5503 1.56794C76.0196 1.56794 76.5103 1.53594 77.0223 1.47194C77.5556 1.40794 78.0463 1.33328 78.4943 1.24794C78.9423 1.16261 79.2623 1.07728 79.4543 0.991943ZM65.4063 21.6639V23.9999H62.8463V23.6799C62.8463 23.6799 62.9103 23.6799 63.0383 23.6799C63.1876 23.6799 63.2623 23.6799 63.2623 23.6799C63.8169 23.6799 64.2863 23.4879 64.6703 23.1039C65.0756 22.6986 65.2889 22.2186 65.3103 21.6639H65.4063ZM71.7743 21.6639H71.8703C71.8916 22.2186 72.0943 22.6986 72.4783 23.1039C72.8836 23.4879 73.3636 23.6799 73.9183 23.6799C73.9183 23.6799 73.9823 23.6799 74.1103 23.6799C74.2596 23.6799 74.3343 23.6799 74.3343 23.6799V23.9999H71.7743V21.6639ZM62.1743 3.07194V3.16794C60.8729 3.18928 59.8596 3.57328 59.1343 4.31994C58.4089 5.04528 58.0463 6.04794 58.0463 7.32794V7.55194L57.7263 7.58394V3.07194H62.1743ZM57.7263 0.991943C57.9396 1.07728 58.2596 1.16261 58.6863 1.24794C59.1343 1.33328 59.6249 1.40794 60.1583 1.47194C60.6916 1.53594 61.1823 1.56794 61.6303 1.56794L57.7263 1.91994V0.991943Z" fill="#D1A054"/>
<path d="M89.51 1.59994H93.382C94.342 1.59994 95.3234 1.68528 96.326 1.85594C97.3287 2.02661 98.246 2.33594 99.078 2.78394C99.91 3.21061 100.582 3.81861 101.094 4.60794C101.606 5.39728 101.862 6.41061 101.862 7.64794C101.862 8.45861 101.713 9.30128 101.414 10.1759C101.115 11.0293 100.593 11.7866 99.846 12.4479C99.1207 13.0879 98.086 13.5146 96.742 13.7279C97.638 13.9839 98.4167 14.4213 99.078 15.0399C99.7394 15.6586 100.262 16.2879 100.646 16.9279C100.689 16.9919 100.795 17.1733 100.966 17.4719C101.137 17.7706 101.35 18.1439 101.606 18.5919C101.883 19.0186 102.171 19.4666 102.47 19.9359C102.769 20.4053 103.067 20.8426 103.366 21.2479C103.857 21.9093 104.283 22.4106 104.646 22.7519C105.009 23.0933 105.371 23.3279 105.734 23.4559C106.118 23.5839 106.566 23.6586 107.078 23.6799V23.9999H103.078C101.798 23.9999 100.614 23.9253 99.526 23.7759C98.438 23.6266 97.4567 23.2959 96.582 22.7839C95.7287 22.2719 94.9714 21.4613 94.31 20.3519C94.0754 19.9679 93.8834 19.5839 93.734 19.1999C93.5847 18.8159 93.4567 18.4426 93.35 18.0799C93.2434 17.7173 93.1474 17.3759 93.062 17.0559C92.998 16.7146 92.934 16.3946 92.87 16.0959C92.806 15.7759 92.7314 15.4773 92.646 15.1999C92.4327 14.4319 92.1767 13.9093 91.878 13.6319C91.5794 13.3546 91.2807 13.1626 90.982 13.0559V12.7359C91.0674 12.7359 91.1634 12.7359 91.27 12.7359C91.3767 12.7359 91.4514 12.7359 91.494 12.7359C92.0914 12.7359 92.6247 12.5973 93.094 12.3199C93.5634 12.0426 93.958 11.6159 94.278 11.0399C94.598 10.4639 94.8114 9.71728 94.918 8.79994C94.9394 8.62928 94.9607 8.44794 94.982 8.25594C95.0034 8.04261 95.0034 7.78661 94.982 7.48794C94.8967 5.90928 94.502 4.81061 93.798 4.19194C93.1154 3.57328 92.294 3.26394 91.334 3.26394C91.2274 3.26394 91.0887 3.26394 90.918 3.26394C90.7474 3.26394 90.566 3.26394 90.374 3.26394C90.182 3.26394 90.0007 3.26394 89.83 3.26394C89.83 3.26394 89.798 3.12528 89.734 2.84794C89.6914 2.57061 89.638 2.29328 89.574 2.01594C89.5314 1.73861 89.51 1.59994 89.51 1.59994ZM89.926 1.59994V23.9999H83.334V1.59994H89.926ZM83.43 21.6639V23.9999H80.87V23.6799C80.9127 23.6799 80.9874 23.6799 81.094 23.6799C81.2007 23.6799 81.2647 23.6799 81.286 23.6799C81.8407 23.6799 82.31 23.4879 82.694 23.1039C83.0994 22.6986 83.3127 22.2186 83.334 21.6639H83.43ZM83.43 3.93594H83.334C83.3127 3.38128 83.0994 2.91194 82.694 2.52794C82.31 2.12261 81.8407 1.91994 81.286 1.91994C81.2647 1.91994 81.2007 1.91994 81.094 1.91994C80.9874 1.91994 80.9127 1.91994 80.87 1.91994V1.59994H83.43V3.93594ZM89.83 21.6639H89.926C89.926 22.2186 90.1287 22.6986 90.534 23.1039C90.9394 23.4879 91.4194 23.6799 91.974 23.6799C92.0167 23.6799 92.0807 23.6799 92.166 23.6799C92.2727 23.6799 92.3367 23.6799 92.358 23.6799V23.9999H89.83V21.6639Z" fill="#D1A054"/>
<path d="M118.9 1.15194C121.652 1.15194 124.02 1.62128 126.004 2.55994C128.009 3.47728 129.545 4.79994 130.612 6.52794C131.679 8.25594 132.212 10.3466 132.212 12.7999C132.212 15.2319 131.679 17.3226 130.612 19.0719C129.545 20.7999 128.009 22.1333 126.004 23.0719C124.02 23.9893 121.652 24.4479 118.9 24.4479C116.148 24.4479 113.78 23.9893 111.796 23.0719C109.812 22.1333 108.287 20.7999 107.22 19.0719C106.153 17.3439 105.62 15.2533 105.62 12.7999C105.62 10.3679 106.153 8.28794 107.22 6.55994C108.287 4.81061 109.812 3.47728 111.796 2.55994C113.78 1.62128 116.148 1.15194 118.9 1.15194ZM118.9 22.8479C120.223 22.8479 121.343 22.4533 122.26 21.6639C123.199 20.8533 123.913 19.7013 124.404 18.2079C124.895 16.7146 125.14 14.9119 125.14 12.7999C125.14 10.6879 124.895 8.88528 124.404 7.39194C123.913 5.89861 123.199 4.75728 122.26 3.96794C121.343 3.15728 120.223 2.75194 118.9 2.75194C117.599 2.75194 116.479 3.15728 115.54 3.96794C114.623 4.75728 113.919 5.89861 113.428 7.39194C112.937 8.88528 112.692 10.6879 112.692 12.7999C112.692 14.9119 112.937 16.7146 113.428 18.2079C113.919 19.7013 114.623 20.8533 115.54 21.6639C116.479 22.4533 117.599 22.8479 118.9 22.8479Z" fill="#D1A054"/>
<path d="M146.653 1.59994H153.565C155.165 1.59994 156.637 1.75994 157.981 2.07994C159.325 2.39994 160.402 2.96528 161.213 3.77594C162.045 4.56528 162.461 5.69594 162.461 7.16794C162.461 8.19194 162.258 9.04528 161.853 9.72794C161.447 10.4106 160.925 10.9226 160.285 11.2639C159.666 11.6053 158.994 11.7866 158.269 11.8079C159.314 11.8506 160.274 12.1066 161.149 12.5759C162.045 13.0453 162.759 13.7066 163.293 14.5599C163.826 15.3919 164.093 16.4053 164.093 17.5999C164.093 19.0719 163.655 20.2879 162.781 21.2479C161.927 22.1866 160.743 22.8799 159.229 23.3279C157.735 23.7759 156.018 23.9999 154.077 23.9999H151.165C151.165 23.9999 151.165 23.8613 151.165 23.5839C151.186 23.3066 151.197 23.0399 151.197 22.7839C151.197 22.5066 151.197 22.3679 151.197 22.3679H151.869C152.722 22.3679 153.501 22.1973 154.205 21.8559C154.93 21.5146 155.506 20.9599 155.933 20.1919C156.359 19.4239 156.573 18.3999 156.573 17.1199C156.573 16.3519 156.487 15.6693 156.317 15.0719C156.146 14.4533 155.89 13.9306 155.549 13.5039C155.229 13.0559 154.813 12.7253 154.301 12.5119C153.81 12.2773 153.223 12.1599 152.541 12.1599V11.8719C153.053 11.8719 153.501 11.7759 153.885 11.5839C154.269 11.3919 154.578 11.1253 154.813 10.7839C155.069 10.4213 155.261 9.98394 155.389 9.47194C155.517 8.93861 155.581 8.34128 155.581 7.67994C155.581 6.52794 155.41 5.63194 155.069 4.99194C154.749 4.33061 154.311 3.87194 153.757 3.61594C153.202 3.33861 152.573 3.19994 151.869 3.19994H146.973C146.973 3.17861 146.941 3.03994 146.877 2.78394C146.834 2.52794 146.781 2.27194 146.717 2.01594C146.674 1.73861 146.653 1.59994 146.653 1.59994ZM151.453 1.59994V23.9999H144.893V1.59994H151.453ZM144.989 21.6639V23.9999H142.429V23.6799C142.471 23.6799 142.546 23.6799 142.653 23.6799C142.759 23.6799 142.823 23.6799 142.845 23.6799C143.399 23.6799 143.869 23.4879 144.253 23.1039C144.658 22.6986 144.871 22.2186 144.893 21.6639H144.989ZM144.989 3.93594H144.893C144.871 3.38128 144.658 2.91194 144.253 2.52794C143.869 2.12261 143.399 1.91994 142.845 1.91994C142.823 1.91994 142.759 1.91994 142.653 1.91994C142.546 1.91994 142.471 1.91994 142.429 1.91994V1.59994H144.989V3.93594Z" fill="#D1A054"/>
<path d="M179.744 1.15194C182.496 1.15194 184.864 1.62128 186.848 2.55994C188.853 3.47728 190.389 4.79994 191.456 6.52794C192.522 8.25594 193.056 10.3466 193.056 12.7999C193.056 15.2319 192.522 17.3226 191.456 19.0719C190.389 20.7999 188.853 22.1333 186.848 23.0719C184.864 23.9893 182.496 24.4479 179.744 24.4479C176.992 24.4479 174.624 23.9893 172.64 23.0719C170.656 22.1333 169.13 20.7999 168.064 19.0719C166.997 17.3439 166.464 15.2533 166.464 12.7999C166.464 10.3679 166.997 8.28794 168.064 6.55994C169.13 4.81061 170.656 3.47728 172.64 2.55994C174.624 1.62128 176.992 1.15194 179.744 1.15194ZM179.744 22.8479C181.066 22.8479 182.186 22.4533 183.104 21.6639C184.042 20.8533 184.757 19.7013 185.248 18.2079C185.738 16.7146 185.984 14.9119 185.984 12.7999C185.984 10.6879 185.738 8.88528 185.248 7.39194C184.757 5.89861 184.042 4.75728 183.104 3.96794C182.186 3.15728 181.066 2.75194 179.744 2.75194C178.442 2.75194 177.322 3.15728 176.384 3.96794C175.466 4.75728 174.762 5.89861 174.272 7.39194C173.781 8.88528 173.536 10.6879 173.536 12.7999C173.536 14.9119 173.781 16.7146 174.272 18.2079C174.762 19.7013 175.466 20.8533 176.384 21.6639C177.322 22.4533 178.442 22.8479 179.744 22.8479Z" fill="#D1A054"/>
<path d="M203.721 1.15194C204.19 1.15194 204.819 1.17328 205.609 1.21594C206.398 1.25861 207.219 1.32261 208.073 1.40794C208.926 1.47194 209.673 1.54661 210.313 1.63194C210.953 1.69594 211.369 1.77061 211.561 1.85594L210.921 6.68794H210.601C210.601 5.51461 210.142 4.56528 209.225 3.83994C208.329 3.11461 207.091 2.75194 205.513 2.75194C204.211 2.75194 203.177 3.00794 202.409 3.51994C201.641 4.01061 201.225 4.65061 201.161 5.43994C201.097 6.20794 201.353 6.80528 201.929 7.23194C202.526 7.65861 203.219 8.05328 204.009 8.41594L209.993 11.1999C211.187 11.7333 212.126 12.5119 212.809 13.5359C213.491 14.5599 213.779 15.8506 213.673 17.4079C213.523 19.6906 212.563 21.4399 210.793 22.6559C209.043 23.8506 206.654 24.4479 203.625 24.4479C202.387 24.4479 201.267 24.3519 200.265 24.1599C199.262 23.9679 198.398 23.7226 197.673 23.4239C196.969 23.1039 196.425 22.7519 196.041 22.3679C195.806 21.8346 195.71 21.1839 195.753 20.4159C195.795 19.6479 195.934 18.8906 196.169 18.1439C196.425 17.3759 196.723 16.7679 197.065 16.3199H197.353C197.289 17.4293 197.523 18.4853 198.057 19.4879C198.59 20.4906 199.39 21.3013 200.457 21.9199C201.523 22.5386 202.803 22.8479 204.297 22.8479C205.833 22.8479 206.963 22.5279 207.689 21.8879C208.435 21.2479 208.809 20.5226 208.809 19.7119C208.809 19.0293 208.542 18.4106 208.009 17.8559C207.497 17.3013 206.633 16.7466 205.417 16.1919L200.201 13.7599C198.729 13.0773 197.651 12.1386 196.969 10.9439C196.307 9.74928 196.073 8.39461 196.265 6.87994C196.414 5.64261 196.809 4.59728 197.449 3.74394C198.089 2.89061 198.931 2.25061 199.977 1.82394C201.043 1.37594 202.291 1.15194 203.721 1.15194ZM211.625 1.47194L211.529 2.14394H206.889V1.47194H211.625Z" fill="#D1A054"/>
<path d="M224.346 1.15194C224.815 1.15194 225.444 1.17328 226.234 1.21594C227.023 1.25861 227.844 1.32261 228.698 1.40794C229.551 1.47194 230.298 1.54661 230.938 1.63194C231.578 1.69594 231.994 1.77061 232.186 1.85594L231.546 6.68794H231.226C231.226 5.51461 230.767 4.56528 229.85 3.83994C228.954 3.11461 227.716 2.75194 226.138 2.75194C224.836 2.75194 223.802 3.00794 223.034 3.51994C222.266 4.01061 221.85 4.65061 221.786 5.43994C221.722 6.20794 221.978 6.80528 222.554 7.23194C223.151 7.65861 223.844 8.05328 224.634 8.41594L230.618 11.1999C231.812 11.7333 232.751 12.5119 233.434 13.5359C234.116 14.5599 234.404 15.8506 234.298 17.4079C234.148 19.6906 233.188 21.4399 231.418 22.6559C229.668 23.8506 227.279 24.4479 224.25 24.4479C223.012 24.4479 221.892 24.3519 220.89 24.1599C219.887 23.9679 219.023 23.7226 218.298 23.4239C217.594 23.1039 217.05 22.7519 216.666 22.3679C216.431 21.8346 216.335 21.1839 216.378 20.4159C216.42 19.6479 216.559 18.8906 216.794 18.1439C217.05 17.3759 217.348 16.7679 217.69 16.3199H217.978C217.914 17.4293 218.148 18.4853 218.682 19.4879C219.215 20.4906 220.015 21.3013 221.082 21.9199C222.148 22.5386 223.428 22.8479 224.922 22.8479C226.458 22.8479 227.588 22.5279 228.314 21.8879C229.06 21.2479 229.434 20.5226 229.434 19.7119C229.434 19.0293 229.167 18.4106 228.634 17.8559C228.122 17.3013 227.258 16.7466 226.042 16.1919L220.826 13.7599C219.354 13.0773 218.276 12.1386 217.594 10.9439C216.932 9.74928 216.698 8.39461 216.89 6.87994C217.039 5.64261 217.434 4.59728 218.074 3.74394C218.714 2.89061 219.556 2.25061 220.602 1.82394C221.668 1.37594 222.916 1.15194 224.346 1.15194ZM232.25 1.47194L232.154 2.14394H227.514V1.47194H232.25Z" fill="#D1A054"/>
<path d="M8.136 32H11.232C11.952 32 12.656 32.08 13.344 32.24C14.032 32.4 14.64 32.656 15.168 33.008C15.712 33.36 16.144 33.824 16.464 34.4C16.784 34.976 16.944 35.688 16.944 36.536C16.944 37.208 16.8 37.88 16.512 38.552C16.24 39.208 15.816 39.776 15.24 40.256C14.664 40.72 13.92 41 13.008 41.096C13.52 41.256 13.984 41.544 14.4 41.96C14.832 42.376 15.184 42.792 15.456 43.208C15.472 43.24 15.56 43.384 15.72 43.64C15.896 43.896 16.104 44.216 16.344 44.6C16.6 44.968 16.864 45.344 17.136 45.728C17.408 46.112 17.656 46.448 17.88 46.736C18.232 47.168 18.552 47.52 18.84 47.792C19.128 48.048 19.432 48.24 19.752 48.368C20.072 48.48 20.44 48.544 20.856 48.56V48.8H18.504C17.64 48.8 16.856 48.728 16.152 48.584C15.448 48.424 14.824 48.16 14.28 47.792C13.736 47.424 13.264 46.928 12.864 46.304C12.736 46.112 12.592 45.872 12.432 45.584C12.288 45.28 12.136 44.96 11.976 44.624C11.816 44.288 11.656 43.968 11.496 43.664C11.352 43.344 11.224 43.056 11.112 42.8C11 42.544 10.92 42.344 10.872 42.2C10.664 41.688 10.416 41.304 10.128 41.048C9.856 40.792 9.56 40.64 9.24 40.592V40.352C9.288 40.352 9.384 40.352 9.528 40.352C9.672 40.352 9.824 40.352 9.984 40.352C10.416 40.352 10.832 40.264 11.232 40.088C11.648 39.912 12.016 39.624 12.336 39.224C12.656 38.824 12.88 38.272 13.008 37.568C13.04 37.424 13.064 37.256 13.08 37.064C13.112 36.872 13.12 36.656 13.104 36.416C13.056 35.264 12.768 34.424 12.24 33.896C11.712 33.352 11.056 33.072 10.272 33.056C10.048 33.04 9.8 33.04 9.528 33.056C9.272 33.056 9.032 33.056 8.808 33.056C8.6 33.056 8.456 33.056 8.376 33.056C8.376 33.04 8.352 32.952 8.304 32.792C8.272 32.616 8.232 32.44 8.184 32.264C8.152 32.088 8.136 32 8.136 32ZM8.448 32V48.8H4.848V32H8.448ZM4.92 47.048V48.8H3V48.56C3.016 48.56 3.064 48.56 3.144 48.56C3.24 48.56 3.296 48.56 3.312 48.56C3.728 48.56 4.08 48.416 4.368 48.128C4.672 47.824 4.832 47.464 4.848 47.048H4.92ZM4.92 33.752H4.848C4.832 33.336 4.672 32.984 4.368 32.696C4.08 32.392 3.728 32.24 3.312 32.24C3.296 32.24 3.24 32.24 3.144 32.24C3.064 32.24 3.016 32.24 3 32.24V32H4.92V33.752ZM8.376 47.048H8.448C8.448 47.464 8.6 47.824 8.904 48.128C9.208 48.416 9.568 48.56 9.984 48.56C10.016 48.56 10.072 48.56 10.152 48.56C10.232 48.56 10.272 48.56 10.272 48.56V48.8H8.376V47.048Z" fill="#AE7B2B"/>
<path d="M34.5684 34.4V48.8H31.1124V34.4H34.5684ZM40.1844 47.84L40.7364 48.8H34.5204V47.84H40.1844ZM39.3684 41.192V42.152H34.5204V41.192H39.3684ZM40.4484 34.4V35.36H34.5204V34.4H40.4484ZM41.7204 44.384L40.8084 48.8H36.6564L37.4004 47.84C38.0884 47.84 38.6964 47.704 39.2244 47.432C39.7684 47.144 40.2324 46.744 40.6164 46.232C41.0004 45.704 41.2964 45.088 41.5044 44.384H41.7204ZM39.3684 42.104V44.216H39.1284V44.024C39.1284 43.496 38.9604 43.056 38.6244 42.704C38.3044 42.352 37.8644 42.168 37.3044 42.152V42.104H39.3684ZM39.3684 39.128V41.24H37.3044V41.192C37.8644 41.176 38.3044 40.992 38.6244 40.64C38.9604 40.272 39.1284 39.824 39.1284 39.296V39.128H39.3684ZM40.4484 35.312V37.856H40.2084V37.64C40.2084 36.936 40.0164 36.384 39.6324 35.984C39.2644 35.584 38.7284 35.376 38.0244 35.36V35.312H40.4484ZM40.4484 34.04V34.616L37.9284 34.4C38.3924 34.4 38.8804 34.36 39.3924 34.28C39.9044 34.184 40.2564 34.104 40.4484 34.04ZM31.1604 47.288L31.2804 48.8H29.5044V48.56C29.5044 48.56 29.5524 48.56 29.6484 48.56C29.7444 48.56 29.8004 48.56 29.8164 48.56C30.1684 48.56 30.4644 48.44 30.7044 48.2C30.9604 47.944 31.0964 47.64 31.1124 47.288H31.1604ZM31.1604 35.912H31.1124C31.0964 35.544 30.9604 35.24 30.7044 35C30.4644 34.76 30.1684 34.64 29.8164 34.64C29.8004 34.64 29.7444 34.64 29.6484 34.64C29.5524 34.64 29.5044 34.64 29.5044 34.64V34.4H31.2804L31.1604 35.912Z" fill="#AE7B2B"/>
<path d="M57.0673 34.088C57.3873 34.088 57.7713 34.104 58.2193 34.136C58.6833 34.168 59.1393 34.208 59.5873 34.256C60.0353 34.288 60.4273 34.336 60.7633 34.4C61.1153 34.448 61.3553 34.496 61.4833 34.544L61.1713 37.472H60.9553C60.9553 36.736 60.6993 36.152 60.1873 35.72C59.6753 35.288 58.9393 35.072 57.9793 35.072C57.2113 35.072 56.5873 35.24 56.1073 35.576C55.6433 35.912 55.3953 36.36 55.3633 36.92C55.3313 37.208 55.3793 37.472 55.5073 37.712C55.6513 37.936 55.8433 38.136 56.0833 38.312C56.3393 38.488 56.6193 38.664 56.9233 38.84L60.6913 41.168C61.3313 41.488 61.8353 41.952 62.2033 42.56C62.5713 43.168 62.7313 43.904 62.6833 44.768C62.6353 45.664 62.3713 46.44 61.8913 47.096C61.4273 47.752 60.7793 48.256 59.9473 48.608C59.1313 48.944 58.1633 49.112 57.0433 49.112C56.3553 49.112 55.7153 49.056 55.1233 48.944C54.5313 48.832 54.0193 48.68 53.5873 48.488C53.1713 48.296 52.8513 48.08 52.6273 47.84C52.4993 47.52 52.4433 47.136 52.4593 46.688C52.4753 46.224 52.5473 45.768 52.6753 45.32C52.8033 44.856 52.9633 44.472 53.1553 44.168H53.3473C53.2993 44.888 53.4273 45.552 53.7313 46.16C54.0513 46.768 54.5153 47.256 55.1233 47.624C55.7313 47.976 56.4593 48.152 57.3073 48.152C58.2353 48.152 58.9313 47.936 59.3953 47.504C59.8593 47.072 60.0913 46.568 60.0913 45.992C60.0913 45.56 59.9473 45.176 59.6593 44.84C59.3873 44.488 58.9313 44.144 58.2913 43.808L54.8833 41.648C54.0833 41.232 53.4993 40.68 53.1313 39.992C52.7793 39.304 52.6513 38.552 52.7473 37.736C52.8273 36.968 53.0513 36.312 53.4193 35.768C53.8033 35.224 54.3073 34.808 54.9313 34.52C55.5553 34.232 56.2673 34.088 57.0673 34.088ZM61.4833 34.304L61.4593 34.736H58.8913V34.304H61.4833Z" fill="#AE7B2B"/>
<path d="M81.4736 34.472V48.8H77.9936V34.472H81.4736ZM86.7056 34.376V35.336H72.7856V34.376H86.7056ZM86.7056 35.264V37.808H86.4416V37.592C86.4576 36.904 86.2656 36.36 85.8656 35.96C85.4816 35.56 84.9456 35.352 84.2576 35.336V35.264H86.7056ZM86.7056 34.016V34.616L84.1616 34.376C84.4656 34.376 84.7936 34.36 85.1456 34.328C85.4976 34.28 85.8176 34.232 86.1056 34.184C86.3936 34.12 86.5936 34.064 86.7056 34.016ZM78.0416 47.288V48.8H76.4336V48.56C76.4336 48.56 76.4736 48.56 76.5536 48.56C76.6496 48.56 76.6976 48.56 76.6976 48.56C77.0496 48.56 77.3456 48.44 77.5856 48.2C77.8416 47.944 77.9776 47.64 77.9936 47.288H78.0416ZM81.4016 47.288H81.4736C81.4736 47.64 81.6016 47.944 81.8576 48.2C82.1136 48.44 82.4256 48.56 82.7936 48.56C82.7936 48.56 82.8336 48.56 82.9136 48.56C83.0096 48.56 83.0576 48.56 83.0576 48.56V48.8H81.4016V47.288ZM75.2336 35.264V35.336C74.5296 35.352 73.9856 35.56 73.6016 35.96C73.2336 36.36 73.0496 36.904 73.0496 37.592V37.808H72.7856V35.264H75.2336ZM72.7856 34.016C72.9296 34.048 73.1376 34.096 73.4096 34.16C73.6976 34.224 74.0096 34.28 74.3456 34.328C74.6976 34.36 75.0176 34.376 75.3056 34.376L72.7856 34.616V34.016Z" fill="#AE7B2B"/>
<path d="M102.212 33.752L109.316 48.68H105.26L100.796 38.144L102.212 33.752ZM97.7002 47.216C97.5242 47.648 97.5482 47.984 97.7722 48.224C97.9962 48.448 98.2442 48.56 98.5162 48.56H98.7082V48.8H93.9082V48.56C93.9082 48.56 93.9402 48.56 94.0042 48.56C94.0682 48.56 94.1002 48.56 94.1002 48.56C94.4202 48.56 94.7562 48.464 95.1082 48.272C95.4602 48.064 95.7482 47.712 95.9722 47.216H97.7002ZM102.212 33.752L102.26 36.632L97.0522 48.728H95.2762L100.892 36.656C100.924 36.56 100.996 36.392 101.108 36.152C101.22 35.896 101.34 35.616 101.468 35.312C101.596 34.992 101.716 34.696 101.828 34.424C101.94 34.136 102.004 33.912 102.02 33.752H102.212ZM104.3 44.096V45.032H98.1802V44.096H104.3ZM104.66 47.216H108.62C108.86 47.712 109.156 48.064 109.508 48.272C109.86 48.464 110.196 48.56 110.516 48.56C110.516 48.56 110.548 48.56 110.612 48.56C110.676 48.56 110.708 48.56 110.708 48.56V48.8H103.652V48.56H103.844C104.116 48.56 104.364 48.448 104.588 48.224C104.812 47.984 104.836 47.648 104.66 47.216Z" fill="#AE7B2B"/>
<path d="M123.845 34.4V43.448C123.845 44.92 124.181 46.072 124.853 46.904C125.541 47.736 126.493 48.152 127.709 48.152C128.973 48.152 129.949 47.76 130.637 46.976C131.341 46.192 131.701 45.104 131.717 43.712V34.4H133.301V43.568C133.301 45.28 132.773 46.632 131.717 47.624C130.677 48.616 129.197 49.112 127.277 49.112C124.957 49.112 123.229 48.624 122.093 47.648C120.957 46.656 120.389 45.304 120.389 43.592V34.4H123.845ZM120.437 34.4V35.648H120.389C120.373 35.344 120.261 35.096 120.053 34.904C119.845 34.712 119.589 34.616 119.285 34.616C119.285 34.616 119.229 34.616 119.117 34.616C119.005 34.616 118.949 34.616 118.949 34.616V34.4H120.437ZM125.261 34.4V34.616C125.261 34.616 125.205 34.616 125.093 34.616C124.981 34.616 124.925 34.616 124.925 34.616C124.621 34.616 124.365 34.712 124.157 34.904C123.949 35.096 123.845 35.344 123.845 35.648H123.797V34.4H125.261ZM131.765 34.4V35.648H131.717C131.701 35.344 131.589 35.096 131.381 34.904C131.173 34.712 130.925 34.616 130.637 34.616C130.637 34.616 130.581 34.616 130.469 34.616C130.357 34.616 130.301 34.616 130.301 34.616V34.4H131.765ZM134.717 34.4V34.616C134.717 34.616 134.661 34.616 134.549 34.616C134.453 34.616 134.405 34.616 134.405 34.616C134.101 34.616 133.837 34.712 133.613 34.904C133.405 35.096 133.301 35.344 133.301 35.648H133.253V34.4H134.717Z" fill="#AE7B2B"/>
<path d="M150.127 34.4H152.719C153.375 34.4 154.015 34.472 154.639 34.616C155.263 34.744 155.823 34.96 156.319 35.264C156.815 35.552 157.207 35.952 157.495 36.464C157.799 36.96 157.951 37.584 157.951 38.336C157.951 38.896 157.831 39.456 157.591 40.016C157.367 40.56 157.007 41.032 156.511 41.432C156.031 41.832 155.399 42.096 154.615 42.224C155.079 42.368 155.519 42.648 155.935 43.064C156.367 43.48 156.703 43.872 156.943 44.24C157.007 44.368 157.119 44.576 157.279 44.864C157.439 45.136 157.639 45.456 157.879 45.824C158.135 46.176 158.399 46.544 158.671 46.928C158.991 47.36 159.271 47.696 159.511 47.936C159.751 48.16 159.999 48.32 160.255 48.416C160.511 48.512 160.807 48.56 161.143 48.56V48.8H159.127C158.263 48.8 157.527 48.736 156.919 48.608C156.327 48.48 155.807 48.248 155.359 47.912C154.927 47.56 154.527 47.088 154.159 46.496C154.015 46.288 153.863 46.04 153.703 45.752C153.543 45.448 153.383 45.144 153.223 44.84C153.063 44.536 152.919 44.24 152.791 43.952C152.679 43.664 152.599 43.424 152.551 43.232C152.343 42.72 152.103 42.352 151.831 42.128C151.575 41.888 151.335 41.768 151.111 41.768V41.552C151.111 41.552 151.167 41.552 151.279 41.552C151.391 41.552 151.535 41.552 151.711 41.552C152.047 41.552 152.375 41.496 152.695 41.384C153.031 41.256 153.335 41.024 153.607 40.688C153.879 40.336 154.079 39.824 154.207 39.152C154.239 39.056 154.263 38.92 154.279 38.744C154.311 38.568 154.319 38.368 154.303 38.144C154.271 37.552 154.159 37.08 153.967 36.728C153.791 36.36 153.567 36.088 153.295 35.912C153.023 35.72 152.743 35.592 152.455 35.528C152.183 35.448 151.943 35.408 151.735 35.408C151.431 35.392 151.151 35.392 150.895 35.408C150.655 35.408 150.471 35.4 150.343 35.384C150.327 35.384 150.303 35.304 150.271 35.144C150.239 34.968 150.207 34.8 150.175 34.64C150.143 34.48 150.127 34.4 150.127 34.4ZM150.367 34.4V48.8H146.887V34.4H150.367ZM146.959 47.288L147.055 48.8H145.327V48.56C145.343 48.56 145.383 48.56 145.447 48.56C145.527 48.56 145.583 48.56 145.615 48.56C145.967 48.56 146.263 48.44 146.503 48.2C146.759 47.944 146.895 47.64 146.911 47.288H146.959ZM146.959 35.888H146.911C146.895 35.52 146.759 35.224 146.503 35C146.263 34.76 145.975 34.64 145.639 34.64C145.591 34.64 145.527 34.64 145.447 34.64C145.383 34.64 145.343 34.64 145.327 34.64V34.4H147.055L146.959 35.888ZM150.319 47.288H150.367C150.367 47.688 150.503 48 150.775 48.224C151.063 48.448 151.367 48.56 151.687 48.56C151.687 48.56 151.719 48.56 151.783 48.56C151.847 48.56 151.895 48.56 151.927 48.56V48.8H150.199L150.319 47.288Z" fill="#AE7B2B"/>
<path d="M177.361 33.752L184.465 48.68H180.409L175.945 38.144L177.361 33.752ZM172.849 47.216C172.673 47.648 172.697 47.984 172.921 48.224C173.145 48.448 173.393 48.56 173.665 48.56H173.857V48.8H169.057V48.56C169.057 48.56 169.089 48.56 169.153 48.56C169.217 48.56 169.249 48.56 169.249 48.56C169.569 48.56 169.905 48.464 170.257 48.272C170.609 48.064 170.897 47.712 171.121 47.216H172.849ZM177.361 33.752L177.409 36.632L172.201 48.728H170.425L176.041 36.656C176.073 36.56 176.145 36.392 176.257 36.152C176.369 35.896 176.489 35.616 176.617 35.312C176.745 34.992 176.865 34.696 176.977 34.424C177.089 34.136 177.153 33.912 177.169 33.752H177.361ZM179.449 44.096V45.032H173.329V44.096H179.449ZM179.809 47.216H183.769C184.009 47.712 184.305 48.064 184.657 48.272C185.009 48.464 185.345 48.56 185.665 48.56C185.665 48.56 185.697 48.56 185.761 48.56C185.825 48.56 185.857 48.56 185.857 48.56V48.8H178.801V48.56H178.993C179.265 48.56 179.513 48.448 179.737 48.224C179.961 47.984 179.985 47.648 179.809 47.216Z" fill="#AE7B2B"/>
<path d="M196.455 34.064L210.543 46.448L210.783 49.112L196.719 36.728L196.455 34.064ZM196.551 47.336V48.8H194.775V48.56C194.775 48.56 194.839 48.56 194.967 48.56C195.095 48.56 195.159 48.56 195.159 48.56C195.527 48.56 195.839 48.448 196.095 48.224C196.351 47.984 196.479 47.688 196.479 47.336H196.551ZM199.767 47.336C199.783 47.688 199.919 47.984 200.175 48.224C200.431 48.448 200.735 48.56 201.087 48.56C201.087 48.56 201.151 48.56 201.279 48.56C201.423 48.56 201.495 48.56 201.495 48.56V48.8H199.719V47.336H199.767ZM196.455 34.064L199.767 37.664V48.8H196.479V36.8C196.479 35.984 196.439 35.328 196.359 34.832C196.279 34.32 196.239 34.064 196.239 34.064H196.455ZM210.759 34.4V46.304C210.759 46.864 210.775 47.36 210.807 47.792C210.855 48.208 210.895 48.536 210.927 48.776C210.975 49 210.999 49.112 210.999 49.112H210.783L207.471 45.296V34.4H210.759ZM210.687 35.864V34.4H212.487V34.64C212.487 34.64 212.415 34.64 212.271 34.64C212.143 34.64 212.079 34.64 212.079 34.64C211.727 34.64 211.415 34.76 211.143 35C210.887 35.224 210.759 35.512 210.759 35.864H210.687ZM207.471 35.864C207.455 35.512 207.319 35.224 207.063 35C206.823 34.76 206.519 34.64 206.151 34.64C206.151 34.64 206.079 34.64 205.935 34.64C205.807 34.64 205.743 34.64 205.743 34.64V34.4H207.519V35.864H207.471Z" fill="#AE7B2B"/>
<path d="M231.022 34.472V48.8H227.542V34.472H231.022ZM236.254 34.376V35.336H222.334V34.376H236.254ZM236.254 35.264V37.808H235.99V37.592C236.006 36.904 235.814 36.36 235.414 35.96C235.03 35.56 234.494 35.352 233.806 35.336V35.264H236.254ZM236.254 34.016V34.616L233.71 34.376C234.014 34.376 234.342 34.36 234.694 34.328C235.046 34.28 235.366 34.232 235.654 34.184C235.942 34.12 236.142 34.064 236.254 34.016ZM227.59 47.288V48.8H225.982V48.56C225.982 48.56 226.022 48.56 226.102 48.56C226.198 48.56 226.246 48.56 226.246 48.56C226.598 48.56 226.894 48.44 227.134 48.2C227.39 47.944 227.526 47.64 227.542 47.288H227.59ZM230.95 47.288H231.022C231.022 47.64 231.15 47.944 231.406 48.2C231.662 48.44 231.974 48.56 232.342 48.56C232.342 48.56 232.382 48.56 232.462 48.56C232.558 48.56 232.606 48.56 232.606 48.56V48.8H230.95V47.288ZM224.782 35.264V35.336C224.078 35.352 223.534 35.56 223.15 35.96C222.782 36.36 222.598 36.904 222.598 37.592V37.808H222.334V35.264H224.782ZM222.334 34.016C222.478 34.048 222.686 34.096 222.958 34.16C223.246 34.224 223.558 34.28 223.894 34.328C224.246 34.36 224.566 34.376 224.854 34.376L222.334 34.616V34.016Z" fill="#AE7B2B"/>
</svg>
