<svg width="211" height="51" viewBox="0 0 211 51" fill="none" xmlns="http://www.w3.org/2000/svg">
<path d="M29.9574 25.3792L21.5164 40.4286L15.8672 50.5002H0V50.4901L7.45148 37.2026L14.0801 25.3792L7.45148 13.6668L0 0.505537V0.500488H15.8773L21.5366 10.5014L29.9574 25.3792Z" fill="white"/>
<path d="M58.4817 15.4989C57.7042 13.7118 56.7198 12.0357 55.5637 10.4959C54.1047 8.55226 52.368 6.83074 50.4143 5.38689C48.8745 4.25099 47.1984 3.28169 45.4163 2.51433C42.3923 1.22193 39.0604 0.5 35.5618 0.5H20.6589L26.3181 10.501H35.4154C39.2573 10.501 42.7609 11.9448 45.4163 14.3226C45.8303 14.6912 46.2241 15.0849 46.5977 15.504C48.9704 18.1544 50.4193 21.6631 50.4193 25.4999C50.4193 29.3417 48.9755 32.8454 46.6027 35.5008C46.4159 35.7078 46.2241 35.9098 46.0272 36.1066C45.8303 36.3035 45.6284 36.4954 45.4214 36.6822C42.7659 39.06 39.2623 40.5038 35.4205 40.5038H26.303V40.4332L20.6538 50.4997H35.5669C39.0654 50.4997 42.3974 49.7778 45.4214 48.4804C47.2035 47.7181 48.8796 46.7488 50.4193 45.6078C51.4189 44.8707 52.363 44.0529 53.2414 43.1795C53.4181 43.0028 53.5847 42.8312 53.7563 42.6494C54.3975 41.9679 55.0033 41.251 55.5687 40.4988C56.5683 39.166 57.4417 37.7272 58.1636 36.2076C58.2595 35.9754 58.3958 35.7381 58.4817 35.5008C59.8195 32.4415 60.5616 29.059 60.5616 25.4999C60.5616 21.9458 59.8195 18.5633 58.4817 15.4989Z" fill="white"/>
<path d="M36.9493 28.615H46.0617C45.5266 30.3264 44.5826 31.8561 43.3457 33.098C41.3667 35.077 38.6355 36.3088 35.6266 36.3088H28.6548C22.6471 36.3088 17.73 31.3916 17.73 25.384C17.73 22.3802 18.9618 19.6489 20.9408 17.6649C22.9198 15.6809 25.651 14.4541 28.6598 14.4541H35.6317C40.5186 14.4541 44.6785 17.7002 46.0668 22.1479H36.9493C36.0608 22.1479 35.2531 22.5114 34.6624 23.097C34.0768 23.6827 33.7133 24.4904 33.7133 25.384C33.7133 27.156 35.1672 28.615 36.9493 28.615Z" fill="#B6F214"/>
<path d="M69.0122 27.0618V1.87769H79.2914C81.9102 1.87769 84.1373 2.33046 85.9729 3.23601C87.8085 4.14157 89.2158 5.52437 90.1947 7.38443C91.1982 9.22001 91.6999 11.5818 91.6999 14.4698C91.6999 17.3333 91.1982 19.695 90.1947 21.5551C89.2158 23.4152 87.8085 24.798 85.9729 25.7035C84.1373 26.6091 81.9102 27.0618 79.2914 27.0618H69.0122ZM74.4822 22.5463H79.2547C80.3561 22.5463 81.335 22.3872 82.1916 22.0691C83.0482 21.7509 83.758 21.2859 84.3209 20.674C84.8838 20.0377 85.3121 19.2545 85.6058 18.3245C85.8995 17.37 86.0463 16.2686 86.0463 15.0204V13.9191C86.0463 12.6709 85.8995 11.5818 85.6058 10.6518C85.3121 9.69726 84.8838 8.91407 84.3209 8.30221C83.758 7.66588 83.0482 7.18863 82.1916 6.87046C81.335 6.52782 80.3561 6.3565 79.2547 6.3565H74.4822V22.5463Z" fill="white"/>
<path d="M100.814 27.5024C100.177 27.5024 99.4922 27.429 98.758 27.2821C98.0482 27.1353 97.3752 26.8783 96.7388 26.5112C96.1025 26.1196 95.5763 25.5689 95.1603 24.8591C94.7687 24.1249 94.5729 23.1949 94.5729 22.0691C94.5729 20.723 94.8666 19.6094 95.4539 18.7283C96.0413 17.8472 96.8735 17.1619 97.9503 16.6725C99.0517 16.1585 100.361 15.8036 101.878 15.6078C103.396 15.412 105.072 15.3141 106.908 15.3141V13.8824C106.908 13.3195 106.81 12.83 106.614 12.4139C106.443 11.9978 106.125 11.6674 105.66 11.4227C105.219 11.178 104.595 11.0556 103.787 11.0556C102.98 11.0556 102.319 11.1535 101.805 11.3493C101.316 11.5451 100.961 11.8021 100.74 12.1202C100.545 12.4139 100.447 12.7443 100.447 13.1114V13.552H95.4907C95.4662 13.4296 95.4539 13.3195 95.4539 13.2216C95.4539 13.0992 95.4539 12.9523 95.4539 12.781C95.4539 11.6552 95.7966 10.6885 96.4819 9.88081C97.1672 9.04868 98.1339 8.41235 99.3821 7.97181C100.63 7.53127 102.086 7.311 103.751 7.311C105.537 7.311 107.03 7.54351 108.23 8.00852C109.453 8.47354 110.383 9.15882 111.02 10.0644C111.68 10.9699 112.011 12.108 112.011 13.4785V22.2526C112.011 22.6932 112.133 23.0236 112.378 23.2438C112.647 23.4396 112.941 23.5375 113.259 23.5375H114.47V26.8783C114.226 27.0007 113.846 27.123 113.332 27.2454C112.818 27.3922 112.194 27.4657 111.46 27.4657C110.75 27.4657 110.114 27.3555 109.551 27.1353C109.013 26.9395 108.56 26.658 108.193 26.2909C107.826 25.8993 107.569 25.4343 107.422 24.8959H107.165C106.749 25.4098 106.235 25.8626 105.623 26.2542C105.036 26.6458 104.338 26.9517 103.53 27.172C102.747 27.3922 101.842 27.5024 100.814 27.5024ZM102.539 23.6477C103.225 23.6477 103.836 23.5498 104.375 23.354C104.913 23.1337 105.366 22.8522 105.733 22.5096C106.1 22.1425 106.382 21.7019 106.578 21.188C106.798 20.674 106.908 20.1233 106.908 19.536V18.4713C105.537 18.4713 104.314 18.5692 103.237 18.765C102.16 18.9363 101.303 19.2423 100.667 19.6828C100.055 20.1233 99.7492 20.7352 99.7492 21.5184C99.7492 21.9589 99.8593 22.3383 100.08 22.6564C100.3 22.9746 100.618 23.2194 101.034 23.3907C101.45 23.562 101.952 23.6477 102.539 23.6477Z" fill="white"/>
<path d="M117.006 27.0618V7.75154H121.228L121.632 10.3948H121.889C122.305 9.75844 122.795 9.20777 123.358 8.74275C123.945 8.27774 124.593 7.92286 125.303 7.67812C126.037 7.43337 126.821 7.311 127.653 7.311C128.877 7.311 129.929 7.55575 130.81 8.04523C131.716 8.53472 132.413 9.3179 132.903 10.3948H133.16C133.576 9.75844 134.077 9.20777 134.665 8.74275C135.252 8.27774 135.925 7.92286 136.684 7.67812C137.443 7.43337 138.25 7.311 139.107 7.311C140.33 7.311 141.383 7.53127 142.264 7.97181C143.17 8.41235 143.879 9.13434 144.393 10.1378C144.907 11.1168 145.164 12.3894 145.164 13.9558V27.0618H140.061V14.8736C140.061 14.2617 139.988 13.7478 139.841 13.3317C139.719 12.8912 139.535 12.5485 139.29 12.3038C139.046 12.0346 138.74 11.8388 138.373 11.7164C138.005 11.594 137.614 11.5328 137.198 11.5328C136.512 11.5328 135.901 11.7164 135.362 12.0835C134.824 12.4506 134.395 12.9524 134.077 13.5887C133.784 14.225 133.637 14.9593 133.637 15.7914V27.0618H128.534V14.8736C128.534 14.2617 128.46 13.7478 128.314 13.3317C128.191 12.8912 128.008 12.5485 127.763 12.3038C127.518 12.0346 127.212 11.8388 126.845 11.7164C126.502 11.594 126.111 11.5328 125.67 11.5328C125.01 11.5328 124.398 11.7164 123.835 12.0835C123.296 12.4506 122.868 12.9524 122.55 13.5887C122.256 14.225 122.109 14.9593 122.109 15.7914V27.0618H117.006Z" fill="white"/>
<path d="M157.522 27.5024C156.176 27.5024 154.965 27.3555 153.888 27.0618C152.811 26.7681 151.893 26.3643 151.134 25.8504C150.376 25.3119 149.788 24.6756 149.372 23.9414C148.981 23.2071 148.785 22.375 148.785 21.445C148.785 21.3471 148.785 21.2492 148.785 21.1513C148.785 21.0534 148.797 20.98 148.822 20.931H153.741C153.741 20.98 153.741 21.0289 153.741 21.0779C153.741 21.1268 153.741 21.1757 153.741 21.2247C153.765 21.8366 153.961 22.3383 154.328 22.7299C154.695 23.097 155.173 23.3662 155.76 23.5375C156.372 23.7088 157.008 23.7945 157.669 23.7945C158.256 23.7945 158.819 23.7456 159.358 23.6477C159.921 23.5253 160.386 23.3173 160.753 23.0236C161.144 22.7299 161.34 22.3505 161.34 21.8855C161.34 21.2981 161.095 20.8453 160.606 20.5272C160.141 20.209 159.517 19.952 158.734 19.7562C157.975 19.5604 157.143 19.3402 156.237 19.0954C155.405 18.8996 154.573 18.6794 153.741 18.4346C152.909 18.1654 152.15 17.8228 151.465 17.4067C150.804 16.9906 150.266 16.4522 149.849 15.7914C149.433 15.1061 149.225 14.2495 149.225 13.2216C149.225 12.2181 149.446 11.3493 149.886 10.615C150.327 9.85634 150.926 9.23224 151.685 8.74275C152.468 8.25327 153.374 7.89839 154.402 7.67812C155.454 7.43337 156.58 7.311 157.779 7.311C158.905 7.311 159.957 7.43337 160.936 7.67812C161.915 7.89839 162.772 8.24103 163.506 8.70604C164.24 9.14658 164.816 9.70949 165.232 10.3948C165.648 11.0556 165.856 11.8021 165.856 12.6342C165.856 12.8055 165.856 12.9646 165.856 13.1114C165.856 13.2583 165.843 13.3562 165.819 13.4051H160.936V13.1114C160.936 12.6709 160.802 12.3038 160.533 12.0101C160.263 11.6919 159.872 11.4472 159.358 11.2759C158.868 11.1045 158.269 11.0189 157.559 11.0189C157.069 11.0189 156.617 11.0556 156.201 11.129C155.809 11.2024 155.466 11.3126 155.173 11.4594C154.879 11.6063 154.646 11.7898 154.475 12.0101C154.328 12.2059 154.255 12.4506 154.255 12.7443C154.255 13.1604 154.426 13.503 154.769 13.7722C155.136 14.017 155.613 14.225 156.201 14.3963C156.788 14.5677 157.437 14.7512 158.146 14.947C159.027 15.1918 159.945 15.4365 160.9 15.6812C161.879 15.9015 162.784 16.2074 163.616 16.599C164.448 16.9906 165.121 17.5535 165.635 18.2878C166.149 18.9975 166.406 19.9643 166.406 21.188C166.406 22.3628 166.174 23.354 165.709 24.1616C165.268 24.9693 164.644 25.6179 163.837 26.1073C163.029 26.5968 162.087 26.9517 161.01 27.172C159.933 27.3922 158.77 27.5024 157.522 27.5024Z" fill="white"/>
<path d="M178.986 27.5024C176.881 27.5024 175.095 27.1475 173.626 26.4377C172.158 25.7035 171.044 24.5899 170.285 23.097C169.527 21.5796 169.147 19.6828 169.147 17.4067C169.147 15.0816 169.527 13.1849 170.285 11.7164C171.044 10.2235 172.158 9.12211 173.626 8.41235C175.095 7.67812 176.881 7.311 178.986 7.311C181.14 7.311 182.939 7.67812 184.383 8.41235C185.851 9.12211 186.965 10.2235 187.723 11.7164C188.482 13.1849 188.861 15.0816 188.861 17.4067C188.861 19.6828 188.482 21.5796 187.723 23.097C186.965 24.5899 185.851 25.7035 184.383 26.4377C182.939 27.1475 181.14 27.5024 178.986 27.5024ZM178.986 23.5375C180.112 23.5375 181.005 23.3295 181.666 22.9134C182.351 22.4974 182.853 21.861 183.171 21.0044C183.489 20.1478 183.648 19.0954 183.648 17.8472V16.9662C183.648 15.718 183.489 14.6656 183.171 13.809C182.853 12.9523 182.351 12.316 181.666 11.9C181.005 11.4594 180.112 11.2391 178.986 11.2391C177.885 11.2391 176.991 11.4594 176.306 11.9C175.645 12.316 175.156 12.9523 174.838 13.809C174.52 14.6656 174.36 15.718 174.36 16.9662V17.8472C174.36 19.0954 174.52 20.1478 174.838 21.0044C175.156 21.861 175.645 22.4974 176.306 22.9134C176.991 23.3295 177.885 23.5375 178.986 23.5375Z" fill="white"/>
<path d="M192.616 27.0618V7.75154H196.838L197.242 10.3948H197.499C197.94 9.75844 198.466 9.20777 199.078 8.74275C199.714 8.27774 200.424 7.92286 201.207 7.67812C201.99 7.43337 202.847 7.311 203.777 7.311C205.049 7.311 206.163 7.54351 207.117 8.00852C208.072 8.47354 208.806 9.20777 209.32 10.2112C209.859 11.2147 210.128 12.524 210.128 14.1394V27.0618H205.025V14.947C205.025 14.3352 204.951 13.8212 204.805 13.4051C204.658 12.9646 204.437 12.6097 204.144 12.3405C203.875 12.0468 203.532 11.8388 203.116 11.7164C202.7 11.594 202.235 11.5328 201.721 11.5328C200.962 11.5328 200.277 11.7164 199.665 12.0835C199.053 12.4506 198.576 12.9524 198.233 13.5887C197.891 14.225 197.719 14.9593 197.719 15.7914V27.0618H192.616Z" fill="white"/>
<path d="M74.5299 37.0921C75.3165 37.0921 76.0183 37.2154 76.6352 37.4622C77.2521 37.709 77.7765 38.0637 78.2084 38.5264C78.6402 38.9891 78.9718 39.5521 79.2032 40.2153L78.1158 40.7242C77.869 39.8914 77.4372 39.2513 76.8203 38.804C76.2188 38.3413 75.4476 38.11 74.5068 38.11C73.6585 38.11 72.9105 38.3105 72.2627 38.7115C71.6149 39.0971 71.1137 39.6677 70.7589 40.4235C70.4042 41.1638 70.2268 42.0584 70.2268 43.1071C70.2268 44.1405 70.4042 45.035 70.7589 45.7908C71.1137 46.5465 71.6072 47.1249 72.2396 47.5259C72.8719 47.9115 73.6199 48.1043 74.4836 48.1043C75.1314 48.1043 75.7175 47.9963 76.2419 47.7804C76.7817 47.5645 77.2213 47.2483 77.5606 46.8319C77.9153 46.4154 78.1467 45.9219 78.2546 45.3512L79.3188 45.7214C79.1183 46.4308 78.7867 47.0401 78.324 47.549C77.8768 48.058 77.3292 48.4513 76.6815 48.7289C76.0337 48.9911 75.3088 49.1222 74.5068 49.1222C73.458 49.1222 72.5172 48.8831 71.6843 48.405C70.8669 47.9269 70.2268 47.2406 69.7641 46.346C69.3014 45.436 69.0701 44.3564 69.0701 43.1071C69.0701 41.8578 69.3014 40.7859 69.7641 39.8914C70.2422 38.9814 70.89 38.2874 71.7074 37.8092C72.5403 37.3311 73.4811 37.0921 74.5299 37.0921Z" fill="#B6F214"/>
<path d="M90.8943 48.8909V37.3234H91.866L92.0048 39.7526C92.2979 38.9351 92.7683 38.2874 93.416 37.8092C94.0638 37.3311 94.8427 37.0921 95.7527 37.0921C96.0611 37.0921 96.3388 37.1229 96.5855 37.1846C96.8323 37.2463 97.0328 37.3465 97.187 37.4853L96.9326 38.5033C96.7629 38.3953 96.5778 38.3105 96.3773 38.2488C96.1768 38.1871 95.8761 38.1563 95.4751 38.1563C94.889 38.1563 94.3337 38.3413 93.8093 38.7115C93.2849 39.0662 92.8608 39.5675 92.5369 40.2153C92.213 40.8476 92.0511 41.5802 92.0511 42.4131V48.8909H90.8943Z" fill="#B6F214"/>
<path d="M112.291 49.1222C111.227 49.1222 110.278 48.8831 109.446 48.405C108.613 47.9269 107.957 47.2406 107.479 46.346C107.016 45.436 106.785 44.3564 106.785 43.1071C106.785 41.8578 107.016 40.7859 107.479 39.8914C107.957 38.9814 108.597 38.2874 109.399 37.8092C110.201 37.3311 111.119 37.0921 112.152 37.0921C113.201 37.0921 114.096 37.3234 114.836 37.7861C115.576 38.2488 116.147 38.8966 116.548 39.7294C116.949 40.5469 117.149 41.4954 117.149 42.575C117.149 42.7138 117.142 42.8526 117.126 42.9915C117.126 43.1148 117.119 43.2305 117.103 43.3385H107.502V42.2974H116.594L116.016 42.4594C116 41.133 115.646 40.0765 114.952 39.2899C114.273 38.5033 113.332 38.11 112.129 38.11C111.296 38.11 110.564 38.3105 109.931 38.7115C109.299 39.0971 108.805 39.6677 108.451 40.4235C108.096 41.1638 107.919 42.0584 107.919 43.1071C107.919 44.1405 108.096 45.035 108.451 45.7908C108.821 46.5465 109.33 47.1249 109.978 47.5259C110.641 47.9115 111.404 48.1043 112.268 48.1043C113.163 48.1043 113.926 47.9115 114.558 47.5259C115.206 47.1403 115.707 46.6082 116.062 45.9296L116.988 46.4617C116.71 47.0169 116.34 47.4951 115.877 47.8961C115.414 48.2816 114.882 48.5824 114.281 48.7983C113.679 49.0142 113.016 49.1222 112.291 49.1222Z" fill="#B6F214"/>
<path d="M136.005 41.2795C136.005 40.277 135.735 39.4981 135.195 38.9428C134.655 38.3876 133.884 38.11 132.882 38.11C132.003 38.11 131.247 38.3028 130.614 38.6884C129.982 39.0585 129.512 39.6832 129.203 40.5623L128.255 39.9608C128.594 39.0508 129.157 38.3491 129.944 37.8555C130.746 37.3465 131.733 37.0921 132.905 37.0921C133.753 37.0921 134.493 37.2463 135.126 37.5548C135.774 37.8478 136.275 38.2874 136.63 38.8734C136.984 39.4595 137.162 40.1921 137.162 41.0713V46.855C137.162 47.6724 137.532 48.0811 138.272 48.0811C138.596 48.0811 138.874 48.0272 139.105 47.9192L139.036 48.8446C138.773 48.9834 138.434 49.0528 138.018 49.0528C137.663 49.0528 137.331 48.9834 137.023 48.8446C136.714 48.7058 136.46 48.4744 136.259 48.1505C136.074 47.8267 135.982 47.3871 135.982 46.8319V46.2072L136.306 46.1841C136.167 46.8473 135.858 47.4025 135.38 47.8498C134.918 48.2816 134.378 48.6055 133.761 48.8215C133.144 49.022 132.527 49.1222 131.91 49.1222C131.185 49.1222 130.537 49.0065 129.967 48.7752C129.396 48.5438 128.949 48.2122 128.625 47.7804C128.301 47.3331 128.139 46.7856 128.139 46.1378C128.139 45.2741 128.424 44.5801 128.995 44.0557C129.581 43.5158 130.399 43.1457 131.447 42.9452L136.236 41.9967V42.9683L132.026 43.8012C131.116 43.9863 130.437 44.2562 129.99 44.6109C129.543 44.9656 129.319 45.4515 129.319 46.0684C129.319 46.7008 129.558 47.202 130.036 47.5722C130.514 47.9269 131.193 48.1043 132.072 48.1043C132.519 48.1043 132.974 48.0426 133.437 47.9192C133.9 47.7958 134.324 47.603 134.709 47.3408C135.11 47.0632 135.427 46.7239 135.658 46.3229C135.889 45.9065 136.005 45.4052 136.005 44.8191V41.2795Z" fill="#B6F214"/>
<path d="M151.545 34.1077V45.8371C151.545 46.5619 151.714 47.1172 152.054 47.5028C152.408 47.8729 152.917 48.058 153.58 48.058C154.012 48.058 154.39 47.9886 154.714 47.8498C155.053 47.6956 155.354 47.4796 155.616 47.202L156.056 48.1505C155.763 48.4436 155.393 48.6826 154.945 48.8677C154.498 49.0374 153.997 49.1222 153.442 49.1222C152.84 49.1222 152.308 49.0142 151.845 48.7983C151.383 48.567 151.02 48.2199 150.758 47.7572C150.511 47.2946 150.388 46.7085 150.388 45.999V34.4315L151.545 34.1077ZM155.871 37.3234V38.3182H148.074V37.3234H155.871Z" fill="#B6F214"/>
<path d="M167.4 35.0793C167.107 35.0793 166.868 34.9945 166.683 34.8248C166.513 34.6398 166.428 34.4007 166.428 34.1077C166.428 33.8146 166.513 33.5833 166.683 33.4136C166.868 33.2285 167.107 33.136 167.4 33.136C167.693 33.136 167.924 33.2285 168.094 33.4136C168.279 33.5833 168.371 33.8146 168.371 34.1077C168.371 34.4007 168.279 34.6398 168.094 34.8248C167.924 34.9945 167.693 35.0793 167.4 35.0793ZM167.978 37.3234V48.8909H166.821V37.3234H167.978Z" fill="#B6F214"/>
<path d="M188.497 37.3234H189.723L184.888 48.8909H183.731L178.896 37.3234H180.191L184.333 47.6878L188.497 37.3234Z" fill="#B6F214"/>
<path d="M205.212 49.1222C204.148 49.1222 203.199 48.8831 202.366 48.405C201.533 47.9269 200.878 47.2406 200.4 46.346C199.937 45.436 199.706 44.3564 199.706 43.1071C199.706 41.8578 199.937 40.7859 200.4 39.8914C200.878 38.9814 201.518 38.2874 202.32 37.8092C203.122 37.3311 204.04 37.0921 205.073 37.0921C206.122 37.0921 207.016 37.3234 207.757 37.7861C208.497 38.2488 209.068 38.8966 209.469 39.7294C209.87 40.5469 210.07 41.4954 210.07 42.575C210.07 42.7138 210.062 42.8526 210.047 42.9915C210.047 43.1148 210.039 43.2305 210.024 43.3385H200.423V42.2974H209.515L208.936 42.4594C208.921 41.133 208.566 40.0765 207.872 39.2899C207.194 38.5033 206.253 38.11 205.05 38.11C204.217 38.11 203.484 38.3105 202.852 38.7115C202.22 39.0971 201.726 39.6677 201.371 40.4235C201.017 41.1638 200.839 42.0584 200.839 43.1071C200.839 44.1405 201.017 45.035 201.371 45.7908C201.741 46.5465 202.25 47.1249 202.898 47.5259C203.561 47.9115 204.325 48.1043 205.189 48.1043C206.083 48.1043 206.847 47.9115 207.479 47.5259C208.127 47.1403 208.628 46.6082 208.983 45.9296L209.908 46.4617C209.631 47.0169 209.26 47.4951 208.798 47.8961C208.335 48.2816 207.803 48.5824 207.201 48.7983C206.6 49.0142 205.937 49.1222 205.212 49.1222Z" fill="#B6F214"/>
</svg>
